<svg width="32" height="32" viewBox="0 0 32 32" fill="none" xmlns="http://www.w3.org/2000/svg">
  <defs>
    <linearGradient id="gradient1" x1="0%" y1="0%" x2="100%" y2="100%">
      <stop offset="0%" style="stop-color:#8B5CF6;stop-opacity:1" />
      <stop offset="50%" style="stop-color:#A855F7;stop-opacity:1" />
      <stop offset="100%" style="stop-color:#C084FC;stop-opacity:1" />
    </linearGradient>
    <linearGradient id="gradient2" x1="0%" y1="0%" x2="100%" y2="100%">
      <stop offset="0%" style="stop-color:#EC4899;stop-opacity:1" />
      <stop offset="100%" style="stop-color:#F472B6;stop-opacity:1" />
    </linearGradient>
  </defs>
  
  <!-- Background circle -->
  <circle cx="16" cy="16" r="15" fill="url(#gradient1)" stroke="#1F2937" stroke-width="2"/>
  
  <!-- Central art symbol - abstract brush/palette -->
  <g transform="translate(8, 8)">
    <!-- Brush handle -->
    <rect x="6" y="2" width="2" height="8" fill="#F3F4F6" rx="1"/>
    
    <!-- Brush tip -->
    <ellipse cx="7" cy="12" rx="2" ry="1.5" fill="url(#gradient2)"/>
    
    <!-- Paint drops -->
    <circle cx="4" cy="6" r="1" fill="#8B5CF6" opacity="0.8"/>
    <circle cx="10" cy="4" r="0.8" fill="#EC4899" opacity="0.8"/>
    <circle cx="12" cy="8" r="0.6" fill="#A855F7" opacity="0.8"/>
    
    <!-- Sparkle effects -->
    <g opacity="0.7">
      <path d="M2 2 L3 3 M3 2 L2 3" stroke="#FDE047" stroke-width="0.5"/>
      <path d="M13 3 L14 4 M14 3 L13 4" stroke="#FDE047" stroke-width="0.5"/>
      <path d="M1 10 L2 11 M2 10 L1 11" stroke="#FDE047" stroke-width="0.5"/>
    </g>
  </g>
  
  <!-- Encryption lock symbol -->
  <g transform="translate(20, 4)" opacity="0.6">
    <rect x="0" y="3" width="6" height="4" fill="none" stroke="#F3F4F6" stroke-width="0.8" rx="1"/>
    <path d="M2 3 L2 1 Q2 0 3 0 L3 0 Q4 0 4 1 L4 3" fill="none" stroke="#F3F4F6" stroke-width="0.8"/>
  </g>
</svg>